<?xml version="1.0" standalone="no"?>
<!DOCTYPE svg PUBLIC "-//W3C//DTD SVG 20010904//EN"
 "http://www.w3.org/TR/2001/REC-SVG-20010904/DTD/svg10.dtd">
<svg version="1.0" xmlns="http://www.w3.org/2000/svg"
 width="1174.000000pt" height="1174.000000pt" viewBox="0 0 1174.000000 1174.000000"
 preserveAspectRatio="xMidYMid meet">
<metadata>
Created by potrace 1.11, written by Peter Selinger 2001-2013
</metadata>
<g transform="translate(0.000000,1174.000000) scale(0.100000,-0.100000)"
fill="#000000" stroke="none">
<path d="M7172 10040 c-9 -14 -7 -21 6 -32 15 -13 19 -13 33 2 14 15 13 18 -6
32 -20 15 -22 15 -33 -2z"/>
<path d="M3152 9994 c-68 -14 -232 -88 -232 -104 0 -6 -6 -10 -12 -10 -23 0
-140 -122 -196 -204 -30 -45 -70 -113 -87 -151 -34 -74 -68 -175 -61 -183 3
-3 2789 -5 2885 -2 34 1 -123 167 -212 223 -87 56 -112 71 -117 72 -3 0 -21 8
-40 17 -130 61 -298 92 -480 89 -313 -5 -499 -5 -535 1 -158 27 -243 60 -446
171 -151 83 -319 112 -467 81z"/>
<path d="M8960 9885 c-10 -11 -9 -18 4 -30 15 -15 17 -15 32 -1 14 14 14 18 0
31 -18 19 -21 19 -36 0z"/>
<path d="M1721 9731 c-10 -17 -9 -25 4 -37 15 -15 17 -15 30 2 9 12 10 21 3
25 -6 4 -14 12 -18 19 -6 9 -11 7 -19 -9z"/>
<path d="M8115 9266 c-94 -95 -109 -116 -161 -221 -106 -218 -107 -474 -2
-693 57 -118 134 -213 238 -293 25 -18 47 -36 50 -39 11 -12 157 -79 185 -86
17 -4 35 -9 40 -13 6 -3 18 -7 28 -8 9 -2 25 -4 35 -6 9 -1 22 -5 27 -8 14 -7
202 -3 255 6 112 18 260 83 350 153 50 40 153 142 147 148 -1 2 -27 -11 -57
-30 -30 -18 -59 -34 -65 -36 -5 -2 -26 -10 -45 -18 -80 -34 -147 -44 -280 -45
-143 -1 -173 3 -254 29 -241 79 -436 271 -517 509 -7 22 -14 43 -15 48 -1 4
-2 8 -4 10 -1 1 -3 11 -5 22 -25 136 -22 254 6 361 12 43 23 89 26 102 3 12 9
22 12 22 4 0 8 6 8 13 0 8 17 42 37 76 21 34 37 64 35 65 -2 2 -36 -28 -74
-68z"/>
<path d="M9510 9330 c0 -5 -7 -10 -15 -10 -12 0 -12 -3 2 -20 18 -20 39 -28
28 -10 -3 6 1 10 9 10 19 0 21 11 4 28 -15 15 -28 16 -28 2z"/>
<path d="M10482 9223 c-18 -19 -32 -36 -30 -38 2 -1 13 -8 26 -14 12 -6 22
-18 22 -26 0 -23 14 -18 54 20 33 31 35 36 19 42 -10 3 -27 16 -38 29 l-20 23
-33 -36z"/>
<path d="M4648 9013 c-14 -16 -14 -20 3 -37 16 -17 19 -17 19 -3 0 8 7 17 16
19 14 3 14 5 -3 21 -19 16 -20 16 -35 0z"/>
<path d="M6347 8972 c-15 -16 -15 -19 3 -30 24 -15 33 -15 25 -2 -3 6 1 10 9
10 14 0 14 3 4 20 -16 25 -21 25 -41 2z"/>
<path d="M1239 8939 c-7 -4 -16 -6 -21 -3 -14 9 -123 -54 -163 -95 -51 -51
-57 -58 -81 -101 -10 -19 -21 -37 -24 -40 -5 -5 -40 -101 -40 -110 0 -3 355
-6 790 -6 l789 -1 -20 28 c-52 74 -169 146 -284 174 -67 17 -122 19 -350 12
-38 -1 -86 1 -105 6 -19 5 -43 8 -52 8 -10 0 -20 5 -23 10 -4 5 -10 7 -14 5
-4 -3 -48 15 -97 41 -49 25 -107 52 -129 60 -46 17 -156 25 -176 12z"/>
<path d="M11623 8754 c-16 -17 -16 -22 0 -38 10 -10 16 -9 30 4 16 16 16 18 0
32 -15 14 -20 14 -30 2z"/>
<path d="M10169 8636 c-2 -2 -24 -7 -49 -10 -72 -8 -92 -14 -156 -46 -103 -50
-211 -169 -267 -291 -34 -75 -52 -128 -46 -134 3 -3 472 -4 1042 -3 l1037 3
-26 30 c-14 17 -33 39 -43 50 -9 11 -34 33 -56 49 -22 17 -42 33 -45 36 -6 8
-148 75 -175 83 -11 4 -31 8 -45 11 -14 3 -37 7 -51 10 -59 13 -178 21 -223
15 -79 -9 -337 -3 -386 10 -25 6 -55 13 -66 16 -12 3 -35 12 -50 20 -16 8 -33
15 -39 15 -5 0 -37 16 -70 36 -33 20 -64 37 -70 38 -5 1 -16 5 -22 9 -25 16
-119 43 -148 42 -17 0 -33 3 -36 8 -3 4 -7 5 -10 3z"/>
<path d="M2050 7866 c-167 -338 -308 -612 -313 -609 -6 3 -7 1 -3 -5 3 -6 -11
-47 -33 -91 -22 -45 -39 -81 -38 -82 1 -1 44 -3 96 -5 52 -2 97 -7 100 -10 3
-3 -2 -19 -12 -36 -10 -17 -43 -80 -74 -142 -32 -61 -62 -114 -68 -118 -5 -4
-6 -8 -2 -8 5 0 -1 -13 -12 -28 -11 -16 -21 -35 -23 -43 -2 -8 -6 -16 -9 -19
-4 -3 -23 -39 -44 -80 -21 -41 -43 -78 -49 -82 -6 -4 -8 -8 -3 -8 4 0 -5 -23
-20 -50 -15 -28 -30 -47 -34 -43 -13 14 -177 308 -177 317 0 5 -4 12 -9 15 -6
3 -25 33 -43 66 -18 33 -48 87 -67 120 -19 33 -39 70 -45 83 -6 12 -14 22 -18
22 -4 0 -19 -24 -33 -52 -13 -29 -145 -294 -291 -589 -146 -295 -266 -541
-266 -546 0 -6 -3 -13 -7 -15 -5 -1 -16 -20 -25 -40 l-18 -38 35 -1 c19 -1 60
-1 90 -2 43 -1 55 -4 55 -17 0 -9 -4 -20 -9 -25 -4 -6 -41 -73 -81 -150 -40
-77 -90 -171 -110 -210 -20 -38 -66 -124 -101 -190 -34 -66 -77 -147 -95 -180
-17 -33 -55 -104 -83 -157 l-50 -97 138 -3 139 -3 -15 -35 c-9 -19 -17 -37
-18 -40 -1 -3 -30 -63 -65 -135 -35 -71 -63 -133 -62 -137 1 -5 -3 -8 -8 -8
-6 0 -10 -4 -10 -9 0 -15 -124 -265 -135 -273 -5 -4 -7 -8 -4 -8 4 0 -21 -57
-56 -128 -35 -70 -62 -128 -60 -130 1 -2 278 -3 614 -3 600 0 611 0 611 -19 0
-11 5 -20 10 -20 6 0 10 8 8 18 -3 16 32 17 602 19 333 1 611 2 619 3 11 0 11
3 0 16 -10 12 -13 51 -13 140 0 68 -3 124 -6 124 -4 0 -6 -42 -6 -92 1 -51 0
-99 -2 -106 -3 -8 -21 14 -41 49 -20 34 -45 76 -56 94 -11 18 -65 107 -120
199 -55 92 -110 184 -123 204 -12 20 -25 44 -29 52 -4 8 -11 20 -16 25 -17 20
-118 197 -115 201 2 2 57 6 123 9 65 3 121 7 123 9 2 2 -18 46 -45 97 -26 52
-48 99 -48 104 0 11 1073 16 1080 5 2 -4 -5 -45 -16 -91 -11 -46 -22 -93 -25
-104 -2 -11 -7 -33 -10 -50 -4 -16 -8 -37 -9 -45 0 -9 -4 -21 -9 -28 -4 -6 -5
-12 -2 -12 3 0 1 -12 -5 -27 -6 -16 -12 -41 -14 -58 -2 -16 -6 -41 -9 -55 -3
-14 -10 -48 -16 -76 -6 -28 -13 -64 -17 -80 -7 -34 -8 -133 -1 -154 7 -22 31
-73 43 -89 29 -42 138 -141 155 -141 11 0 20 -4 20 -8 0 -5 30 -10 66 -11 94
-3 203 32 283 91 41 31 39 60 26 -397 -9 -289 -7 -337 11 -415 3 -14 7 -32 8
-40 3 -18 12 -42 33 -90 8 -19 14 -37 13 -39 -1 -2 4 -8 12 -12 7 -5 -90 -9
-227 -9 -262 1 -313 -5 -401 -46 -71 -34 -181 -140 -211 -204 -73 -155 -65
-336 20 -465 29 -43 119 -135 133 -135 7 0 14 -4 16 -8 3 -9 92 -52 107 -52 5
0 22 -6 38 -13 24 -10 -193 -12 -1129 -12 -638 0 -1162 -3 -1165 -8 -2 -4 -9
-5 -14 -1 -13 8 -97 9 -105 2 -3 -4 -16 -3 -29 2 -13 5 -25 6 -28 4 -9 -10
-147 -10 -150 0 -2 5 -11 5 -22 0 -11 -5 -104 -9 -207 -9 -102 0 -184 -2 -181
-5 9 -10 580 -12 4888 -15 2398 -3 4380 -7 4405 -10 25 -3 63 -9 85 -13 22 -4
50 -7 63 -6 12 1 25 -3 28 -7 3 -5 -1 -9 -8 -10 -7 0 -20 -2 -28 -4 -27 -6
-74 -14 -120 -20 -25 -3 -52 -8 -60 -10 -8 -2 -33 -7 -55 -10 -23 -3 -50 -7
-62 -9 -32 -7 -117 -20 -128 -21 -13 0 -6 -76 21 -207 6 -31 1 -31 154 2 52
11 111 22 130 25 32 5 50 8 105 19 84 18 357 71 408 80 15 3 35 7 45 10 9 3
33 7 52 10 34 6 58 10 110 21 99 21 102 21 191 5 35 -7 80 -14 99 -16 19 -2
46 -6 60 -9 14 -3 39 -7 55 -9 62 -9 336 -53 385 -62 14 -3 44 -7 67 -9 l41
-5 -3 42 c-2 24 -5 64 -6 90 l-3 46 -85 17 c-47 9 -93 18 -101 20 -8 2 -26 4
-39 4 -13 1 -21 4 -17 8 7 7 20 10 71 18 17 3 37 6 45 8 8 2 31 7 50 11 19 4
169 8 332 9 164 2 299 5 302 8 3 2 -105 5 -240 5 -282 0 -257 -9 -304 104
l-25 61 -60 -6 c-33 -3 -73 -7 -90 -9 -16 -3 -51 -7 -76 -11 -26 -3 -58 -8
-70 -11 -13 -3 -35 -7 -49 -8 -14 -2 -38 -6 -55 -9 -16 -4 -43 -9 -60 -12 -16
-3 -41 -7 -55 -10 -14 -3 -38 -7 -55 -10 -16 -3 -41 -8 -55 -10 -78 -16 -77
-17 -25 31 232 213 216 191 219 301 0 18 3 33 6 33 3 0 6 26 7 58 3 51 6 97
17 202 9 84 9 132 0 138 -6 4 -21 23 -34 42 -13 19 -30 39 -37 43 -7 4 -13 12
-13 18 0 5 -10 21 -22 34 -13 13 -37 43 -55 67 l-32 43 -4 188 c-3 104 -8 191
-10 194 -3 2 -19 -26 -36 -64 -53 -117 -66 -128 -70 -59 -1 24 -3 53 -5 63 -2
10 -7 43 -10 73 -4 30 -10 73 -13 95 -8 56 -11 78 -12 90 -1 6 -12 -12 -25
-39 -36 -72 -41 -72 -42 2 -2 99 -13 245 -19 251 -3 2 -19 -8 -35 -24 -16 -16
-32 -27 -34 -24 -2 2 -12 45 -21 94 -9 50 -19 101 -22 115 -3 14 -6 30 -7 37
-1 7 -5 15 -8 19 -4 3 -4 12 -1 19 2 8 0 22 -6 32 -9 16 -10 15 -10 -7 0 -28
-5 -90 -16 -195 -16 -151 -20 -249 -12 -263 3 -4 8 -28 12 -52 11 -76 16 -104
20 -108 2 -3 -14 -39 -37 -81 -23 -42 -52 -97 -65 -123 -13 -27 -26 -48 -29
-48 -4 0 3 101 11 150 1 8 -2 24 -8 35 -8 16 -92 149 -104 164 -8 10 -16 -12
-19 -51 -2 -24 -6 -69 -9 -100 -3 -32 -8 -86 -11 -120 -3 -35 -8 -79 -10 -98
-16 -141 -14 -168 16 -219 l29 -50 -67 -34 c-56 -28 -67 -37 -65 -58 2 -31 12
-117 18 -149 2 -14 7 -44 10 -67 9 -75 15 -116 26 -193 5 -41 12 -97 15 -125
8 -81 12 -97 31 -114 28 -24 143 -101 153 -101 4 0 13 -6 19 -14 10 -11 6 -13
-21 -10 -32 3 -41 5 -98 18 -14 3 -41 8 -60 11 -44 6 -77 12 -165 30 -38 8
-94 17 -122 21 -29 3 -53 11 -53 16 0 5 -4 7 -10 3 -7 -5 -148 17 -262 40 -22
4 -28 2 -29 -12 0 -10 -2 -25 -4 -33 -2 -8 -6 -32 -10 -54 -4 -21 -9 -48 -11
-60 -13 -58 -14 -66 -4 -66 5 0 10 -3 10 -7 0 -6 -912 -8 -1045 -3 -23 1 -13
6 37 20 108 31 201 102 263 200 35 55 71 170 71 222 -1 27 3 48 7 48 5 0 5 5
2 10 -4 6 -8 23 -11 38 -9 57 -35 129 -62 169 -77 116 -167 181 -307 223 -51
15 -453 19 -460 5 -3 -6 -7 -5 -11 3 -3 6 -11 9 -17 5 -7 -4 -151 -8 -322 -9
-208 -1 -301 2 -282 8 15 5 25 14 21 19 -3 5 -1 9 4 9 11 0 82 68 79 75 -1 2
6 13 15 24 22 26 61 101 52 101 -4 0 -2 6 4 13 13 16 7 112 -11 162 -23 62
-67 154 -107 220 -45 75 -117 229 -169 363 -37 94 -38 108 -9 103 11 -1 30 38
23 49 -4 6 2 13 12 16 51 16 61 26 56 54 -3 23 0 28 14 26 10 -2 28 1 40 7 16
7 20 14 14 30 -7 18 -2 24 31 39 67 30 61 67 -12 66 -75 0 -160 25 -160 47 0
7 11 20 24 28 65 43 124 125 104 145 -20 20 -31 14 -87 -38 -34 -32 -68 -53
-95 -60 -22 -6 -52 -15 -65 -21 -13 -5 -26 -8 -29 -5 -2 3 -5 145 -6 316 l-1
310 65 22 c36 12 68 23 73 24 4 1 9 3 12 4 3 1 8 3 13 5 4 1 14 4 22 8 8 3 33
11 55 17 22 6 49 15 60 20 36 16 240 82 253 83 6 0 12 1 12 2 0 1 -7 25 -16
54 -8 29 -14 54 -12 56 4 3 189 66 208 70 8 2 53 18 100 35 47 18 90 33 95 34
6 1 21 8 35 16 14 7 25 12 25 11 0 -6 61 25 79 39 98 78 123 112 160 222 29
86 127 406 131 428 2 8 4 15 5 15 1 0 3 7 5 15 8 37 26 70 37 70 10 0 10 2 1
8 -8 5 -1 39 26 124 21 64 36 119 33 123 -3 3 -1 5 5 5 5 0 10 6 10 13 0 18
62 218 76 247 l13 25 257 0 c141 -1 257 3 257 8 0 5 -25 33 -55 62 -86 85
-231 144 -364 149 -52 2 -55 4 -63 32 -5 16 -6 56 -3 89 13 133 13 146 -2 134
-7 -6 -13 -19 -13 -28 0 -9 -4 -21 -9 -27 -4 -5 -16 -33 -27 -61 -17 -51 -19
-53 -55 -53 -23 0 -39 -5 -43 -15 -6 -17 19 -45 40 -45 17 0 19 -16 2 -26 -29
-18 -188 -2 -200 21 -5 8 -14 15 -19 15 -6 0 -7 -5 -3 -11 12 -21 -46 -1 -151
52 -114 56 -128 60 -208 65 -55 2 -136 -16 -164 -39 -7 -5 -13 -7 -13 -3 0 7
-33 -19 -80 -64 -34 -33 -100 -122 -100 -134 0 -4 -11 -29 -24 -56 -17 -36
-21 -52 -13 -57 7 -4 176 -8 377 -9 201 -1 369 -2 374 -3 5 0 2 -9 -6 -18 -8
-10 -22 -36 -30 -58 -9 -22 -38 -87 -66 -145 -27 -58 -56 -121 -65 -140 -14
-32 -42 -92 -142 -307 -24 -53 -44 -83 -54 -83 -13 0 -13 -2 -3 -9 16 -10 -3
-46 -54 -102 -39 -43 -106 -86 -149 -95 -22 -4 -191 -56 -210 -64 -39 -18
-105 -33 -111 -27 -4 4 -7 19 -8 34 l-1 28 -55 -18 c-30 -11 -64 -21 -75 -23
-21 -4 -24 -5 -120 -28 -32 -9 -60 -14 -60 -13 -50 88 -50 89 -6 156 58 91 41
146 -84 276 -42 44 -85 99 -96 123 -19 41 -32 122 -33 209 -1 24 -4 43 -8 43
-3 0 -5 8 -4 17 2 10 -1 33 -5 53 -4 19 -10 55 -14 79 -9 62 -48 145 -88 186
-37 38 -108 74 -148 75 -21 0 -30 8 -44 41 -57 126 -257 165 -427 84 -29 -14
-68 -38 -87 -53 -50 -40 -141 -132 -141 -143 0 -5 -4 -9 -8 -9 -4 0 -24 -28
-44 -62 -51 -88 -63 -151 -41 -227 36 -124 27 -174 -48 -246 -91 -88 -98 -133
-41 -255 36 -79 44 -99 47 -125 3 -26 -25 -115 -37 -115 -4 0 -8 -4 -8 -10 0
-5 -8 -18 -17 -29 -10 -10 -36 -38 -59 -62 -57 -61 -109 -136 -129 -186 l-17
-42 -26 32 c-120 148 -284 279 -397 317 -58 20 -59 20 -138 29 -5 1 -4 82 2
133 1 4 9 5 19 1 14 -5 13 -3 -3 10 -23 19 -26 18 48 23 31 2 70 11 85 21 38
23 82 73 82 93 0 9 3 20 6 23 4 4 8 19 9 34 2 16 5 55 9 88 13 128 25 312 30
456 2 64 4 67 45 104 122 111 164 269 92 346 -15 16 -33 23 -61 24 -24 0 -40
5 -41 13 -3 24 -4 27 -28 61 -30 41 -82 65 -125 55 -43 -9 -94 -41 -101 -64
-6 -19 -7 -19 -38 0 -18 11 -47 20 -65 20 -37 0 -91 -24 -109 -49 -6 -9 -24
-16 -40 -17 -16 0 -34 -4 -41 -8 -7 -4 -16 -5 -21 -1 -14 8 -139 -35 -186 -63
-88 -54 -138 -112 -180 -207 -59 -133 -63 -272 -14 -431 12 -38 22 -73 24 -79
1 -5 5 -17 8 -25 4 -8 9 -35 11 -60 2 -25 5 -45 6 -45 1 0 3 -17 6 -37 2 -21
16 -80 30 -130 14 -51 25 -109 24 -128 -3 -52 -7 -124 -9 -135 0 -6 -25 -10
-57 -9 -73 2 -198 -20 -266 -46 -87 -34 -108 -44 -108 -52 0 -5 -5 -8 -12 -8
-15 0 -104 -68 -153 -118 -52 -52 -68 -72 -91 -110 -10 -18 -22 -32 -25 -32
-4 0 -9 -8 -11 -17 -3 -17 -67 78 -122 182 -11 22 -24 44 -29 50 -35 47 -54
84 -44 88 7 2 48 5 92 7 44 1 96 3 115 5 19 1 42 3 52 4 13 1 9 15 -24 79 -64
121 -130 257 -128 261 1 2 -2 7 -7 10 -5 3 -46 78 -90 166 -44 88 -131 258
-192 379 -61 120 -110 221 -107 223 3 3 47 7 97 9 51 3 94 6 96 8 5 5 -14 45
-47 101 -17 28 -34 57 -37 65 -4 8 -9 17 -12 20 -3 3 -17 28 -31 55 -14 28
-28 52 -32 53 -5 2 -8 7 -8 11 0 5 -45 88 -100 185 -55 96 -100 180 -100 186
0 5 -4 10 -10 10 -5 0 -10 4 -10 9 0 5 -22 48 -50 96 -27 48 -50 90 -50 95 0
4 -7 13 -15 20 -8 7 -15 21 -15 30 0 10 -4 20 -8 22 -7 3 -96 156 -144 249
-13 24 -26 46 -29 49 -3 3 -21 33 -39 68 -19 34 -36 62 -40 62 -3 0 -142 -276
-310 -614z m3333 -3500 c12 -8 36 -17 52 -20 137 -25 228 -56 211 -73 -2 -3 4
-33 14 -68 17 -59 17 -85 3 -125 -3 -8 -7 -19 -9 -25 -2 -5 -15 -48 -29 -95
-29 -93 -63 -225 -72 -280 -3 -19 -7 -37 -9 -39 -2 -2 -23 0 -47 5 -41 10
-203 10 -242 1 -11 -3 -32 -10 -47 -16 -15 -6 -29 -7 -31 -3 -6 9 -14 82 -22
192 -4 47 -10 112 -15 144 -7 60 -7 60 39 126 25 36 51 75 57 86 6 10 29 52
52 92 23 39 38 72 35 72 -3 0 2 9 12 20 22 24 20 24 48 6z"/>
<path d="M7343 8217 c-33 -34 -156 -154 -273 -267 -117 -113 -224 -217 -238
-232 -14 -16 -36 -28 -49 -28 -13 0 -22 -4 -18 -9 3 -6 -11 -21 -31 -35 -33
-22 -34 -25 -15 -31 12 -3 29 -17 37 -30 16 -24 44 -24 44 -1 0 7 11 19 25 26
14 7 25 16 25 19 0 4 28 36 63 73 34 36 87 94 117 128 30 34 73 82 95 106 22
24 47 52 55 62 26 33 104 123 133 154 15 16 27 31 27 33 0 3 8 13 18 23 31 34
54 64 50 68 -2 2 -31 -25 -65 -59z"/>
<path d="M4366 7992 c-4 -12 -19 -31 -33 -42 -14 -11 -24 -22 -22 -23 2 -2 17
-11 32 -20 15 -10 25 -22 22 -26 -3 -5 2 -11 10 -15 9 -3 15 0 15 8 0 8 14 26
31 40 l30 26 -23 11 c-14 6 -31 22 -40 36 -15 26 -16 26 -22 5z"/>
<path d="M10482 7385 c-10 -12 -9 -18 5 -34 17 -20 17 -20 30 0 12 16 12 21
-1 34 -18 18 -18 18 -34 0z"/>
<path d="M9880 7287 c-14 -28 -24 -54 -23 -57 1 -3 -5 -12 -12 -20 -7 -8 -14
-18 -14 -23 -1 -4 -15 -37 -32 -75 -17 -37 -58 -128 -91 -202 -34 -74 -66
-138 -72 -142 -6 -4 -8 -8 -4 -8 4 0 -6 -28 -22 -62 -16 -34 -28 -63 -26 -65
1 -2 21 -4 44 -5 49 -2 49 -6 4 -93 -14 -27 -26 -52 -27 -55 0 -3 -38 -80 -83
-172 -45 -92 -82 -172 -82 -177 0 -5 -4 -11 -9 -13 -5 -1 -13 -15 -16 -30 -7
-26 -5 -27 32 -27 73 2 91 -1 89 -13 -4 -16 -26 -68 -72 -166 -19 -41 -34 -75
-34 -77 0 -2 -16 -39 -36 -82 -20 -43 -45 -97 -55 -120 l-18 -42 323 -3 c178
-2 340 0 359 3 20 3 38 3 39 0 2 -3 123 -4 270 -1 l267 5 -74 134 c-41 73 -75
138 -75 142 0 5 -4 9 -10 9 -5 0 -9 3 -8 8 2 6 -52 111 -89 170 -8 13 -12 26
-9 29 3 4 31 7 61 7 30 1 55 4 55 8 0 9 -31 77 -106 236 -30 62 -54 117 -54
123 0 5 -4 9 -10 9 -5 0 -10 7 -10 16 0 9 -9 34 -20 55 -11 22 -29 57 -41 79
-19 38 -19 40 -2 41 17 1 41 4 70 7 8 1 -11 48 -49 120 -33 64 -79 153 -102
197 -22 44 -44 82 -48 83 -5 2 -8 12 -8 22 0 9 -6 23 -14 29 -8 7 -17 24 -21
39 -4 15 -10 29 -13 32 -4 3 -18 28 -32 55 -14 28 -34 67 -45 87 l-21 37 -24
-52z"/>
<path d="M4106 7281 c-6 -9 -1 -45 9 -60 3 -5 -8 -3 -23 5 -43 21 -92 29 -92
15 0 -7 5 -9 11 -6 12 8 66 -12 90 -32 14 -12 17 -12 22 1 3 8 2 28 -3 45 -4
16 -6 32 -2 35 3 3 3 6 -1 6 -3 0 -8 -4 -11 -9z"/>
<path d="M11210 7101 c0 -5 -20 -52 -44 -103 -84 -179 -88 -191 -68 -194 6 -1
14 -2 16 -3 2 0 -22 -54 -54 -118 -56 -115 -59 -136 -19 -126 10 3 19 3 19 -1
0 -3 -20 -51 -45 -107 -26 -56 -44 -104 -41 -106 4 -4 362 -7 505 -4 33 1 35
14 9 53 -9 14 -23 40 -32 59 -9 19 -25 50 -36 69 l-20 35 32 6 c18 4 27 7 21
8 -7 0 -12 4 -11 9 1 4 -21 56 -50 115 -29 60 -52 110 -52 112 0 1 10 5 22 8
16 5 19 9 11 19 -6 7 -41 73 -79 146 -60 117 -84 152 -84 123z"/>
<path d="M3228 6843 c7 -3 16 -2 19 1 4 3 -2 6 -13 5 -11 0 -14 -3 -6 -6z"/>
<path d="M3308 6803 c7 -3 16 -2 19 1 4 3 -2 6 -13 5 -11 0 -14 -3 -6 -6z"/>
<path d="M3400 6760 c8 -5 20 -10 25 -10 6 0 3 5 -5 10 -8 5 -19 10 -25 10 -5
0 -3 -5 5 -10z"/>
<path d="M3610 6660 c0 -5 5 -10 11 -10 5 0 7 5 4 10 -3 6 -8 10 -11 10 -2 0
-4 -4 -4 -10z"/>
<path d="M3950 6496 c0 -3 9 -10 20 -16 11 -6 20 -8 20 -6 0 3 -9 10 -20 16
-11 6 -20 8 -20 6z"/>
<path d="M4790 6080 c0 -5 5 -10 11 -10 5 0 7 5 4 10 -3 6 -8 10 -11 10 -2 0
-4 -4 -4 -10z"/>
<path d="M7439 6043 c-13 -16 -12 -17 4 -4 9 7 17 15 17 17 0 8 -8 3 -21 -13z"/>
<path d="M4867 6039 c7 -7 15 -10 18 -7 3 3 -2 9 -12 12 -14 6 -15 5 -6 -5z"/>
<path d="M4910 6020 c0 -5 5 -10 11 -10 5 0 7 5 4 10 -3 6 -8 10 -11 10 -2 0
-4 -4 -4 -10z"/>
<path d="M4947 5999 c7 -7 15 -10 18 -7 3 3 -2 9 -12 12 -14 6 -15 5 -6 -5z"/>
<path d="M7330 6000 c-9 -6 -10 -10 -3 -10 6 0 15 5 18 10 8 12 4 12 -15 0z"/>
<path d="M7220 5950 c-9 -6 -10 -10 -3 -10 6 0 15 5 18 10 8 12 4 12 -15 0z"/>
<path d="M5110 5926 c0 -2 7 -7 16 -10 8 -3 12 -2 9 4 -6 10 -25 14 -25 6z"/>
<path d="M5195 5880 c3 -5 8 -10 11 -10 2 0 4 5 4 10 0 6 -5 10 -11 10 -5 0
-7 -4 -4 -10z"/>
<path d="M9935 5520 c3 -5 8 -10 11 -10 2 0 4 5 4 10 0 6 -5 10 -11 10 -5 0
-7 -4 -4 -10z"/>
<path d="M9937 5475 c-4 -8 -3 -16 1 -19 4 -3 9 4 9 15 2 23 -3 25 -10 4z"/>
<path d="M9933 5355 c0 -8 4 -12 9 -9 5 3 6 10 3 15 -9 13 -12 11 -12 -6z"/>
<path d="M9933 5271 c0 -11 5 -18 9 -15 4 3 5 11 1 19 -7 21 -12 19 -10 -4z"/>
<path d="M9935 5220 c-3 -5 -1 -10 4 -10 6 0 11 5 11 10 0 6 -2 10 -4 10 -3 0
-8 -4 -11 -10z"/>
<path d="M2449 4763 c0 -98 -1 -287 -2 -420 -1 -134 1 -243 5 -243 5 0 8 80 9
178 0 97 1 284 3 415 1 131 -2 241 -6 243 -4 3 -8 -75 -9 -173z"/>
<path d="M10542 4349 l-73 -77 17 -76 c10 -42 21 -76 24 -76 3 0 32 27 65 60
57 58 59 61 56 107 -6 107 -9 134 -12 137 -2 1 -37 -32 -77 -75z"/>
<path d="M2440 3730 c0 -33 3 -60 8 -60 4 0 7 27 7 60 0 33 -3 60 -7 60 -5 0
-8 -27 -8 -60z"/>
<path d="M1228 3580 c-2 -99 0 -180 5 -180 9 0 8 -12 11 193 1 92 -1 167 -6
167 -4 0 -8 -81 -10 -180z"/>
<path d="M2441 3635 c-6 -97 -5 -145 4 -145 9 0 10 83 1 150 -3 22 -3 21 -5
-5z"/>
<path d="M2441 3434 c0 -11 3 -14 6 -6 3 7 2 16 -1 19 -3 4 -6 -2 -5 -13z"/>
<path d="M2436 3393 c-4 -9 -2 -21 4 -27 7 -7 10 -2 10 17 0 31 -5 34 -14 10z"/>
<path d="M1229 3380 c-2 -8 -2 -33 1 -55 4 -28 7 -34 11 -20 6 25 -4 96 -12
75z"/>
<path d="M2435 3341 c-3 -5 -1 -12 5 -16 5 -3 10 1 10 9 0 18 -6 21 -15 7z"/>
<path d="M2441 3294 c0 -11 3 -14 6 -6 3 7 2 16 -1 19 -3 4 -6 -2 -5 -13z"/>
<path d="M1229 3278 c-5 -17 -2 -113 3 -121 4 -7 8 18 8 56 0 37 -2 67 -5 67
-3 0 -5 -1 -6 -2z"/>
<path d="M2436 3255 c4 -8 8 -15 10 -15 2 0 4 7 4 15 0 8 -4 15 -10 15 -5 0
-7 -7 -4 -15z"/>
<path d="M2436 3203 c7 -39 13 -41 12 -4 -1 17 -5 31 -9 31 -4 0 -5 -12 -3
-27z"/>
<path d="M1224 3005 c0 -74 2 -135 5 -135 3 0 7 61 8 135 2 74 -1 135 -5 135
-4 0 -7 -61 -8 -135z"/>
<path d="M2435 3120 c3 -5 8 -10 11 -10 2 0 4 5 4 10 0 6 -5 10 -11 10 -5 0
-7 -4 -4 -10z"/>
<path d="M2439 3088 c-5 -15 -4 -50 1 -53 3 -2 6 9 6 26 0 24 -3 37 -7 27z"/>
<path d="M1769 3033 c-32 -41 -38 -62 -34 -144 2 -73 8 -117 15 -126 2 -2 3
-6 4 -11 0 -4 15 -37 33 -73 30 -60 108 -149 132 -149 6 0 15 -18 21 -40 6
-22 15 -40 20 -40 5 0 3 15 -4 33 -16 38 -15 46 13 147 38 133 7 292 -71 367
-53 51 -105 65 -129 36z"/>
<path d="M1220 2825 c0 -19 4 -35 8 -35 4 0 6 16 4 35 -2 19 -6 35 -8 35 -2 0
-4 -16 -4 -35z"/>
<path d="M1224 2767 c-2 -7 -3 -91 -2 -187 l3 -175 5 188 c3 103 4 187 2 187
-1 0 -5 -6 -8 -13z"/>
<path d="M2228 2649 c-16 -4 -28 -5 -28 -2 0 2 -13 -5 -29 -16 -16 -12 -32
-21 -36 -21 -12 0 -45 -43 -61 -79 -16 -35 -17 -108 -1 -128 5 -7 6 -17 2 -23
-3 -5 -9 -20 -12 -32 -7 -31 -16 -194 -10 -188 2 3 7 42 10 87 3 46 11 91 16
101 6 11 7 22 4 26 -6 6 12 10 30 7 36 -6 169 108 193 165 29 70 -10 122 -78
103z"/>
<path d="M1603 2495 c-28 -20 -29 -48 -4 -89 51 -81 160 -138 261 -136 30 1
63 1 73 1 21 0 46 -29 78 -91 13 -25 27 -46 31 -48 4 -2 4 -10 1 -18 -3 -8 -1
-14 4 -14 15 0 13 41 -3 57 -7 8 -14 24 -14 36 0 18 -2 19 -11 7 -8 -12 -9 -9
-5 13 4 15 0 50 -8 76 -8 27 -12 52 -9 55 4 3 1 6 -6 6 -11 0 -8 -28 10 -78 5
-13 9 -31 8 -40 0 -13 -4 -11 -17 8 -9 13 -25 31 -34 39 -10 9 -18 19 -18 24
0 18 -68 98 -115 134 -76 59 -182 86 -222 58z"/>
<path d="M1965 2406 c8 -18 11 -36 8 -40 -4 -3 -1 -6 6 -6 8 0 11 6 7 16 -3 9
-9 27 -12 40 -3 13 -10 24 -15 24 -4 0 -2 -15 6 -34z"/>
<path d="M1221 2384 c0 -11 3 -14 6 -6 3 7 2 16 -1 19 -3 4 -6 -2 -5 -13z"/>
<path d="M1215 2200 c3 -5 8 -10 11 -10 2 0 4 5 4 10 0 6 -5 10 -11 10 -5 0
-7 -4 -4 -10z"/>
<path d="M110 2048 c0 -4 4 -8 9 -8 6 0 12 4 15 8 3 5 -1 9 -9 9 -8 0 -15 -4
-15 -9z"/>
</g>
</svg>
